<svg width="186" height="121" viewBox="0 0 186 121" fill="none" xmlns="http://www.w3.org/2000/svg">
<path d="M28.56 26.12C28.2 26.08 27.86 26.06 27.54 26.06C27.22 26.06 26.86 26.06 26.46 26.06C26.1 26.06 25.66 26.06 25.14 26.06C24.62 26.06 24 26.02 23.28 25.94C22.8 25.9 22.28 25.76 21.72 25.52C21.2 25.24 20.7 24.92 20.22 24.56C19.78 24.2 19.4 23.84 19.08 23.48C18.76 23.08 18.6 22.72 18.6 22.4C18.6 22.08 18.78 21.86 19.14 21.74C19.5 21.58 19.98 21.48 20.58 21.44C21.18 21.4 21.84 21.4 22.56 21.44C23.32 21.44 24.06 21.44 24.78 21.44L33.24 21.62C34.28 21.66 35.28 21.78 36.24 21.98C37.2 22.14 37.7 22.5 37.74 23.06C37.74 23.34 37.62 23.64 37.38 23.96C37.14 24.24 36.82 24.52 36.42 24.8C36.06 25.08 35.64 25.32 35.16 25.52C34.72 25.72 34.28 25.84 33.84 25.88V36.44C33.84 37.32 33.7 38.18 33.42 39.02C33.18 39.82 32.86 40.52 32.46 41.12C32.06 41.76 31.64 42.26 31.2 42.62C30.8 42.98 30.44 43.16 30.12 43.16C29.92 43.16 29.64 43.04 29.28 42.8C28.92 42.56 28.68 42.28 28.56 41.96C28.8 41.36 28.96 40.64 29.04 39.8C29.12 38.92 29.14 38.02 29.1 37.1C27.18 38.82 25.28 40 23.4 40.64C21.52 41.24 19.68 41.52 17.88 41.48C15.8 41.44 13.82 40.96 11.94 40.04C10.06 39.08 8.4 37.78 6.96 36.14C5.52 34.5 4.38 32.56 3.54 30.32C2.7 28.04 2.28 25.56 2.28 22.88C2.28 19.4 2.76 16.32 3.72 13.64C4.68 10.92 5.98 8.64 7.62 6.8C9.3 4.92 11.22 3.5 13.38 2.54C15.54 1.58 17.82 1.1 20.22 1.1C21.38 1.1 22.56 1.24 23.76 1.52C24.96 1.8 26.04 2.14 27 2.54C28 2.9 28.8 3.32 29.4 3.8C30.04 4.24 30.36 4.64 30.36 5C30.36 5.4 30.02 5.8 29.34 6.2C28.66 6.6 27.86 6.8 26.94 6.8C26.5 6.8 26.06 6.76 25.62 6.68C25.22 6.6 24.78 6.5 24.3 6.38C23.82 6.26 23.28 6.16 22.68 6.08C22.08 6 21.38 5.96 20.58 5.96C18.78 5.96 17.14 6.32 15.66 7.04C14.18 7.72 12.9 8.72 11.82 10.04C10.78 11.32 9.96 12.9 9.36 14.78C8.76 16.66 8.46 18.78 8.46 21.14C8.46 23.14 8.7 25 9.18 26.72C9.7 28.4 10.38 29.9 11.22 31.22C12.06 32.5 13.04 33.56 14.16 34.4C15.32 35.24 16.54 35.76 17.82 35.96C18.58 36.08 19.44 36.12 20.4 36.08C21.4 36 22.4 35.8 23.4 35.48C24.4 35.12 25.34 34.64 26.22 34.04C27.14 33.4 27.92 32.58 28.56 31.58V26.12ZM47.7417 26.9C47.7417 28.14 47.7617 29.34 47.8017 30.5C47.8817 31.62 48.0617 32.64 48.3417 33.56C48.6617 34.44 49.1217 35.18 49.7217 35.78C50.3217 36.34 51.1417 36.68 52.1817 36.8C52.9017 36.88 53.6217 36.84 54.3417 36.68C55.1017 36.52 55.7817 36.3 56.3817 36.02C56.5417 35.98 56.8217 35.86 57.2217 35.66C57.6617 35.46 58.1017 35.3 58.5417 35.18L59.3817 34.94V16.82C58.8217 16.46 58.3417 16.02 57.9417 15.5C57.5417 14.98 57.2617 14.38 57.1017 13.7C57.0617 13.54 57.0417 13.34 57.0417 13.1C57.0417 12.82 57.0617 12.56 57.1017 12.32C57.1417 12.08 57.2017 11.88 57.2817 11.72C57.4017 11.52 57.5617 11.42 57.7617 11.42C57.9617 11.42 58.2017 11.46 58.4817 11.54C58.7617 11.62 59.0217 11.7 59.2617 11.78C59.8217 11.98 60.5217 12.28 61.3617 12.68C62.2417 13.08 62.9417 13.46 63.4617 13.82C63.8217 14.1 64.0817 14.44 64.2417 14.84C64.4417 15.2 64.5417 15.68 64.5417 16.28V36.74C64.5417 37.26 64.6017 37.8 64.7217 38.36C64.8817 38.88 65.0617 39.34 65.2617 39.74C65.5017 40.3 65.7017 40.8 65.8617 41.24C66.0617 41.72 66.0417 42.06 65.8017 42.26C65.6817 42.38 65.4817 42.44 65.2017 42.44C64.9217 42.44 64.6017 42.4 64.2417 42.32C63.8817 42.28 63.5217 42.2 63.1617 42.08C62.8417 42 62.5617 41.9 62.3217 41.78C61.3217 41.26 60.5617 40.58 60.0417 39.74C59.9617 39.58 59.8817 39.44 59.8017 39.32C59.7617 39.16 59.7017 39 59.6217 38.84L58.8417 39.56C58.0017 40.36 56.9417 41.04 55.6617 41.6C54.4217 42.2 53.0817 42.5 51.6417 42.5C48.8817 42.5 46.6617 41.5 44.9817 39.5C43.3017 37.46 42.4217 34.28 42.3417 29.96C42.3417 29.08 42.3617 28.1 42.4017 27.02C42.4417 25.94 42.4417 24.84 42.4017 23.72C42.4017 22.6 42.3417 21.5 42.2217 20.42C42.1417 19.3 41.9617 18.28 41.6817 17.36C41.6017 17.12 41.4817 16.86 41.3217 16.58C41.2017 16.26 41.0817 15.96 40.9617 15.68C40.8817 15.4 40.8417 15.14 40.8417 14.9C40.8417 14.62 40.9417 14.4 41.1417 14.24C41.3017 14.12 41.5417 14.08 41.8617 14.12C42.1817 14.12 42.5217 14.18 42.8817 14.3C43.2417 14.38 43.5817 14.48 43.9017 14.6C44.2617 14.72 44.5217 14.84 44.6817 14.96C45.3217 15.36 45.8417 15.88 46.2417 16.52C46.6417 17.12 46.9417 17.8 47.1417 18.56C47.3817 19.32 47.5417 20.14 47.6217 21.02C47.7017 21.9 47.7417 22.78 47.7417 23.66V26.9ZM73.8333 18.32C73.8333 18.08 73.7933 17.94 73.7133 17.9C73.6733 17.82 73.6133 17.76 73.5333 17.72C73.1333 17.6 72.6533 17.48 72.0933 17.36C71.5333 17.2 71.1133 17.06 70.8333 16.94C70.4333 16.74 70.0933 16.46 69.8133 16.1C69.5333 15.7 69.3933 15.3 69.3933 14.9C69.3933 14.62 69.6133 14.38 70.0533 14.18C70.4933 13.94 70.8533 13.78 71.1333 13.7C72.1333 13.38 73.0533 13.14 73.8933 12.98C74.7333 12.82 75.6333 12.76 76.5933 12.8C77.0733 12.8 77.4533 12.9 77.7333 13.1C78.0533 13.3 78.2733 13.54 78.3933 13.82C78.5533 14.06 78.6533 14.32 78.6933 14.6C78.7733 14.84 78.8133 15.04 78.8133 15.2V33.62C78.8133 34.58 78.7133 35.64 78.5133 36.8C78.3133 37.92 78.0533 38.98 77.7333 39.98C77.4533 40.94 77.0933 41.74 76.6533 42.38C76.2533 43.02 75.8533 43.34 75.4533 43.34C75.0933 43.34 74.8133 42.96 74.6133 42.2C74.4133 41.48 74.2533 40.6 74.1333 39.56C74.0133 38.52 73.9333 37.46 73.8933 36.38C73.8533 35.3 73.8333 34.4 73.8333 33.68V18.32ZM75.7533 9.62C75.3133 9.7 74.6933 9.58 73.8933 9.26C73.1333 8.9 72.5133 8.44 72.0333 7.88C71.7133 7.52 71.5533 7.1 71.5533 6.62C71.5933 6.1 71.7133 5.62 71.9133 5.18C72.1533 4.7 72.4533 4.3 72.8133 3.98C73.2133 3.66 73.6333 3.5 74.0733 3.5C74.5533 3.5 75.0333 3.58 75.5133 3.74C76.0333 3.86 76.4933 4.06 76.8933 4.34C77.3333 4.58 77.6933 4.86 77.9733 5.18C78.2533 5.5 78.3933 5.84 78.3933 6.2C78.3933 6.88 78.1333 7.6 77.6133 8.36C77.0933 9.12 76.4733 9.54 75.7533 9.62ZM102.318 6.2C102.318 5.92 102.278 5.76 102.198 5.72C102.158 5.64 102.038 5.58 101.838 5.54C101.038 5.42 100.258 5.18 99.4983 4.82C99.0583 4.62 98.6783 4.34 98.3583 3.98C98.0383 3.58 97.8783 3.28 97.8783 3.08C97.8783 2.8 98.0983 2.54 98.5383 2.3C98.9783 2.02 99.3383 1.84 99.6183 1.76C100.018 1.6 100.478 1.46 100.998 1.34C101.558 1.22 102.118 1.12 102.678 1.04C103.238 0.959998 103.778 0.899998 104.298 0.859998C104.818 0.819999 105.258 0.799999 105.618 0.799999C105.858 0.799999 106.098 0.899999 106.338 1.1C106.578 1.3 106.798 1.54 106.998 1.82C107.198 2.06 107.358 2.32 107.478 2.6C107.598 2.88 107.658 3.1 107.658 3.26V36.8C107.658 37.4 107.678 38.12 107.718 38.96C107.798 39.76 107.938 40.38 108.138 40.82C108.378 41.22 108.638 41.54 108.918 41.78C109.198 42.06 109.458 42.28 109.698 42.44C109.938 42.64 110.138 42.8 110.298 42.92C110.498 43.04 110.598 43.16 110.598 43.28C110.638 43.64 110.438 43.88 109.998 44C109.598 44.12 109.118 44.18 108.558 44.18C108.038 44.18 107.498 44.14 106.938 44.06C106.418 43.98 106.078 43.9 105.918 43.82C105.478 43.62 105.038 43.34 104.598 42.98C104.198 42.66 103.818 42.16 103.458 41.48C103.138 40.84 102.858 39.98 102.618 38.9C102.418 37.82 102.318 36.44 102.318 34.76V21.98C101.718 21.54 100.918 21.1 99.9183 20.66C98.9583 20.22 97.9183 20.04 96.7983 20.12C95.9983 20.16 95.1383 20.3 94.2183 20.54C93.3383 20.78 92.4983 21.24 91.6983 21.92C90.9383 22.6 90.2983 23.56 89.7783 24.8C89.2983 26 89.0783 27.6 89.1183 29.6C89.1183 31 89.2183 32.4 89.4183 33.8C89.6183 35.16 89.9983 36.34 90.5583 37.34C91.1583 38.3 91.9583 39 92.9583 39.44C93.9583 39.88 95.2783 39.86 96.9183 39.38C97.2383 39.3 97.6183 39.18 98.0583 39.02C98.5383 38.86 98.9983 38.7 99.4383 38.54C99.8783 38.38 100.278 38.26 100.638 38.18C101.038 38.06 101.318 38.04 101.478 38.12C101.758 38.24 101.758 38.6 101.478 39.2C101.198 39.8 100.738 40.42 100.098 41.06C99.4583 41.7 98.6983 42.28 97.8183 42.8C96.9383 43.32 96.0183 43.58 95.0583 43.58C93.4983 43.58 91.9983 43.3 90.5583 42.74C89.1583 42.22 87.9183 41.4 86.8383 40.28C85.7583 39.16 84.8983 37.76 84.2583 36.08C83.6183 34.36 83.2983 32.32 83.2983 29.96C83.2983 27.96 83.5983 26.04 84.1983 24.2C84.7983 22.36 85.6583 20.74 86.7783 19.34C87.8983 17.94 89.2583 16.82 90.8583 15.98C92.4983 15.14 94.3583 14.72 96.4383 14.72C97.4383 14.72 98.4983 14.96 99.6183 15.44C100.738 15.88 101.638 16.52 102.318 17.36V6.2ZM125.058 41.66C122.978 41.62 121.158 41.16 119.598 40.28C118.078 39.36 116.838 38.2 115.878 36.8C114.918 35.36 114.258 33.78 113.898 32.06C113.538 30.3 113.478 28.58 113.718 26.9C113.958 25.06 114.458 23.38 115.218 21.86C116.018 20.34 117.018 19.06 118.218 18.02C119.418 16.98 120.818 16.2 122.418 15.68C124.018 15.12 125.758 14.9 127.638 15.02C129.238 15.14 130.578 15.56 131.658 16.28C132.738 17 133.618 17.82 134.298 18.74C134.978 19.66 135.478 20.58 135.798 21.5C136.118 22.42 136.318 23.12 136.398 23.6C136.798 23.92 137.138 24.34 137.418 24.86C137.698 25.38 137.838 25.74 137.838 25.94C137.718 26.54 136.898 27 135.378 27.32C134.778 27.44 133.778 27.58 132.378 27.74C130.978 27.9 129.458 28.06 127.818 28.22C126.218 28.38 124.638 28.5 123.078 28.58C121.558 28.66 120.378 28.68 119.538 28.64C119.458 29.4 119.458 30.26 119.538 31.22C119.618 32.18 119.858 33.1 120.258 33.98C120.658 34.82 121.258 35.54 122.058 36.14C122.858 36.74 123.938 37.06 125.298 37.1C126.178 37.18 127.118 37.12 128.118 36.92C129.158 36.72 129.878 36.54 130.278 36.38C131.798 35.86 132.898 35.44 133.578 35.12C134.258 34.8 134.738 34.8 135.018 35.12C135.258 35.36 135.218 35.9 134.898 36.74C134.618 37.58 133.878 38.48 132.678 39.44C131.478 40.36 130.178 40.96 128.778 41.24C127.378 41.52 126.138 41.66 125.058 41.66ZM131.178 23.48C131.058 22.88 130.818 22.28 130.458 21.68C130.138 21.04 129.698 20.5 129.138 20.06C128.618 19.58 127.998 19.22 127.278 18.98C126.598 18.74 125.858 18.7 125.058 18.86C124.298 18.98 123.618 19.26 123.018 19.7C122.458 20.14 121.958 20.66 121.518 21.26C121.078 21.86 120.718 22.5 120.438 23.18C120.158 23.86 119.958 24.52 119.838 25.16C121.998 24.84 123.978 24.54 125.778 24.26C127.578 23.98 129.378 23.72 131.178 23.48ZM4.08 82.1C4.08 81.82 3.88 81.56 3.48 81.32C3.12 81.08 2.72 80.78 2.28 80.42C1.84 80.06 1.42 79.64 1.02 79.16C0.66 78.64 0.48 77.98 0.48 77.18C0.48 76.82 0.54 76.56 0.66 76.4C0.78 76.24 0.92 76.12 1.08 76.04C1.24 75.96 1.4 75.92 1.56 75.92C1.72 75.92 1.86 75.92 1.98 75.92C2.62 75.92 3.3 76.02 4.02 76.22C4.78 76.38 5.48 76.62 6.12 76.94C6.8 77.22 7.4 77.54 7.92 77.9C8.48 78.26 8.88 78.62 9.12 78.98C10.04 78.42 11.16 78.04 12.48 77.84C13.84 77.6 15.14 77.48 16.38 77.48C18.06 77.48 19.64 77.72 21.12 78.2C22.64 78.68 23.98 79.44 25.14 80.48C26.46 81.68 27.38 83.16 27.9 84.92C28.46 86.68 28.74 88.4 28.74 90.08C28.74 91.88 28.24 93.42 27.24 94.7C26.24 95.94 24.98 96.96 23.46 97.76C21.98 98.56 20.38 99.16 18.66 99.56C16.94 99.92 15.36 100.1 13.92 100.1C12.6 100.1 11.8 99.94 11.52 99.62C11.24 99.26 11.1 98.96 11.1 98.72C11.1 98.44 11.4 98.18 12 97.94C12.6 97.66 13.34 97.36 14.22 97.04C15.1 96.72 16.06 96.36 17.1 95.96C18.18 95.52 19.16 95 20.04 94.4C20.92 93.8 21.66 93.1 22.26 92.3C22.86 91.5 23.16 90.54 23.16 89.42C23.16 88.7 23 87.88 22.68 86.96C22.36 86.04 21.88 85.18 21.24 84.38C20.6 83.54 19.8 82.84 18.84 82.28C17.92 81.68 16.86 81.38 15.66 81.38C14.62 81.38 13.6 81.52 12.6 81.8C11.6 82.08 10.6 82.54 9.6 83.18C9.6 84.9 9.62 86.86 9.66 89.06C9.7 91.22 9.72 93.32 9.72 95.36C9.72 97.4 9.66 99.4 9.54 101.36C9.46 103.32 9.36 105.2 9.24 107C9.2 107.84 9.06 108.84 8.82 110C8.62 111.12 8.32 112.2 7.92 113.24C7.56 114.24 7.14 115.1 6.66 115.82C6.22 116.54 5.74 116.9 5.22 116.9C5.14 116.9 5 116.86 4.8 116.78C4.64 116.7 4.46 116.56 4.26 116.36C4.06 116.2 3.86 115.98 3.66 115.7C3.5 115.42 3.4 115.1 3.36 114.74C3.52 114.02 3.7 112.9 3.9 111.38C4.1 109.82 4.22 108.22 4.26 106.58C4.3 105.06 4.32 103.36 4.32 101.48C4.36 99.6 4.36 97.62 4.32 95.54C4.32 93.42 4.3 91.22 4.26 88.94C4.22 86.66 4.16 84.38 4.08 82.1ZM51.4158 99.38C51.4158 98.54 51.2958 97.7 51.0558 96.86C50.8158 95.98 50.4358 95.2 49.9158 94.52C49.3958 93.8 48.7158 93.22 47.8758 92.78C47.0358 92.34 45.9958 92.12 44.7558 92.12C43.7558 92.12 42.7758 92.2 41.8158 92.36C40.8958 92.52 40.0758 92.7 39.3558 92.9C36.5558 93.62 34.9958 93.52 34.6758 92.6C34.5158 92.12 34.6758 91.56 35.1558 90.92C35.6358 90.28 36.3558 89.68 37.3158 89.12C38.3158 88.56 39.4958 88.08 40.8558 87.68C42.2558 87.28 43.7758 87.08 45.4158 87.08C47.0558 87.08 48.5558 87.36 49.9158 87.92C51.3158 88.48 52.5158 89.26 53.5158 90.26C54.5158 91.22 55.2958 92.36 55.8558 93.68C56.4158 95 56.6958 96.42 56.6958 97.94V111.02C56.6958 111.62 56.7158 112.4 56.7558 113.36C56.7958 114.32 56.9158 115.18 57.1158 115.94C57.4358 117.14 57.4758 117.86 57.2358 118.1C57.0358 118.26 56.7158 118.32 56.2758 118.28C55.8758 118.28 55.4758 118.2 55.0758 118.04C54.5558 117.84 54.0358 117.42 53.5158 116.78C53.0358 116.18 52.6158 115.36 52.2558 114.32C52.0558 114.56 51.6958 114.88 51.1758 115.28C50.6958 115.64 50.0758 116 49.3158 116.36C48.5558 116.76 47.6958 117.1 46.7358 117.38C45.8158 117.66 44.8358 117.82 43.7958 117.86C41.7158 117.9 39.9558 117.68 38.5158 117.2C37.0758 116.76 35.8958 116.14 34.9758 115.34C34.0958 114.54 33.4358 113.62 32.9958 112.58C32.5958 111.5 32.3758 110.38 32.3358 109.22C32.2958 108.02 32.4958 106.84 32.9358 105.68C33.3758 104.52 34.0758 103.5 35.0358 102.62C35.9958 101.74 37.2358 101.04 38.7558 100.52C40.2758 100 42.0958 99.76 44.2158 99.8C45.3758 99.84 46.6558 100.06 48.0558 100.46C49.4558 100.86 50.5758 101.36 51.4158 101.96V99.38ZM51.4758 105.2C50.3558 104.8 49.1158 104.46 47.7558 104.18C46.4358 103.9 45.0958 103.78 43.7358 103.82C39.7758 103.9 37.7958 105.52 37.7958 108.68C37.7958 110.24 38.2758 111.28 39.2358 111.8C40.2358 112.32 41.7158 112.58 43.6758 112.58C44.3158 112.58 44.9958 112.5 45.7158 112.34C46.4758 112.18 47.1958 111.98 47.8758 111.74C48.5958 111.46 49.2558 111.14 49.8558 110.78C50.4958 110.42 51.0358 110.06 51.4758 109.7V105.2ZM64.4845 92.18C64.2045 91.98 63.8845 91.78 63.5245 91.58C63.1645 91.34 62.8045 91.1 62.4445 90.86C62.1245 90.62 61.8445 90.34 61.6045 90.02C61.3645 89.7 61.2445 89.36 61.2445 89C61.2445 88.72 61.4645 88.48 61.9045 88.28C62.3445 88.04 62.7045 87.88 62.9845 87.8C63.5045 87.64 64.1845 87.48 65.0245 87.32C65.9045 87.12 66.6845 87.08 67.3645 87.2C67.6045 87.24 67.8445 87.36 68.0845 87.56C68.3645 87.72 68.6045 87.92 68.8045 88.16C69.0445 88.4 69.2245 88.66 69.3445 88.94C69.5045 89.18 69.5845 89.4 69.5845 89.6V91.1C70.5445 90.26 71.6045 89.62 72.7645 89.18C73.9245 88.74 74.8445 88.52 75.5245 88.52C76.6845 88.52 77.6645 88.8 78.4645 89.36C79.2645 89.92 79.8845 90.66 80.3245 91.58C80.4845 91.9 80.6245 92.34 80.7445 92.9C80.8645 93.46 80.8245 93.88 80.6245 94.16C80.4645 94.4 80.1645 94.74 79.7245 95.18C79.3245 95.58 78.9045 95.74 78.4645 95.66C78.1445 95.62 77.8245 95.48 77.5045 95.24C77.1845 94.96 76.8645 94.68 76.5445 94.4C76.2245 94.12 75.8845 93.86 75.5245 93.62C75.2045 93.38 74.8645 93.26 74.5045 93.26C73.5845 93.26 72.6645 93.52 71.7445 94.04C70.8645 94.56 70.1445 95.14 69.5845 95.78V106.64C69.5845 107.92 69.5645 109.22 69.5245 110.54C69.5245 111.86 69.4645 113.06 69.3445 114.14C69.2645 115.18 69.1245 116.04 68.9245 116.72C68.7245 117.4 68.4245 117.74 68.0245 117.74C67.6645 117.74 67.2645 117.54 66.8245 117.14C66.4245 116.74 66.0445 116.16 65.6845 115.4C65.3645 114.64 65.0845 113.7 64.8445 112.58C64.6045 111.46 64.4845 110.18 64.4845 108.74V92.18ZM87.0755 93.32C87.0755 93.08 87.0355 92.94 86.9555 92.9C86.9155 92.82 86.8555 92.76 86.7755 92.72C86.3755 92.6 85.8955 92.48 85.3355 92.36C84.7755 92.2 84.3555 92.06 84.0755 91.94C83.6755 91.74 83.3355 91.46 83.0555 91.1C82.7755 90.7 82.6355 90.3 82.6355 89.9C82.6355 89.62 82.8555 89.38 83.2955 89.18C83.7355 88.94 84.0955 88.78 84.3755 88.7C85.3755 88.38 86.2955 88.14 87.1355 87.98C87.9755 87.82 88.8755 87.76 89.8355 87.8C90.3155 87.8 90.6955 87.9 90.9755 88.1C91.2955 88.3 91.5155 88.54 91.6355 88.82C91.7955 89.06 91.8955 89.32 91.9355 89.6C92.0155 89.84 92.0555 90.04 92.0555 90.2V108.62C92.0555 109.58 91.9555 110.64 91.7555 111.8C91.5555 112.92 91.2955 113.98 90.9755 114.98C90.6955 115.94 90.3355 116.74 89.8955 117.38C89.4955 118.02 89.0955 118.34 88.6955 118.34C88.3355 118.34 88.0555 117.96 87.8555 117.2C87.6555 116.48 87.4955 115.6 87.3755 114.56C87.2555 113.52 87.1755 112.46 87.1355 111.38C87.0955 110.3 87.0755 109.4 87.0755 108.68V93.32ZM88.9955 84.62C88.5555 84.7 87.9355 84.58 87.1355 84.26C86.3755 83.9 85.7555 83.44 85.2755 82.88C84.9555 82.52 84.7955 82.1 84.7955 81.62C84.8355 81.1 84.9555 80.62 85.1555 80.18C85.3955 79.7 85.6955 79.3 86.0555 78.98C86.4555 78.66 86.8755 78.5 87.3155 78.5C87.7955 78.5 88.2755 78.58 88.7555 78.74C89.2755 78.86 89.7355 79.06 90.1355 79.34C90.5755 79.58 90.9355 79.86 91.2155 80.18C91.4955 80.5 91.6355 80.84 91.6355 81.2C91.6355 81.88 91.3755 82.6 90.8555 83.36C90.3355 84.12 89.7155 84.54 88.9955 84.62ZM98.2205 96.5C98.2605 95.54 98.5605 94.68 99.1205 93.92C99.6805 93.12 100.4 92.46 101.28 91.94C102.2 91.38 103.22 90.96 104.34 90.68C105.46 90.4 106.6 90.26 107.76 90.26C109.04 90.26 110.34 90.46 111.66 90.86C113.02 91.22 114.16 91.68 115.08 92.24C115.4 92.44 115.76 92.74 116.16 93.14C116.56 93.54 116.7 93.92 116.58 94.28C116.54 94.44 116.4 94.66 116.16 94.94C115.92 95.18 115.62 95.4 115.26 95.6C114.94 95.8 114.58 95.96 114.18 96.08C113.78 96.2 113.4 96.18 113.04 96.02C112.04 95.62 111.2 95.36 110.52 95.24C109.84 95.12 109.12 95.02 108.36 94.94C106.84 94.82 105.64 94.92 104.76 95.24C103.88 95.56 103.4 96 103.32 96.56C103.24 97.24 103.4 97.82 103.8 98.3C104.24 98.74 104.72 99.08 105.24 99.32C106.64 99.92 108.04 100.48 109.44 101C110.88 101.48 112.18 102.06 113.34 102.74C114.62 103.5 115.62 104.46 116.34 105.62C117.1 106.78 117.44 108.24 117.36 110C117.28 111.04 116.96 112 116.4 112.88C115.84 113.76 115.12 114.52 114.24 115.16C113.4 115.8 112.44 116.28 111.36 116.6C110.28 116.96 109.18 117.14 108.06 117.14C106.06 117.14 104.2 116.72 102.48 115.88C100.8 115.04 99.5205 113.82 98.6405 112.22C98.4005 111.82 98.2205 111.34 98.1005 110.78C97.9805 110.22 97.9405 109.7 97.9805 109.22C98.0605 108.7 98.2005 108.26 98.4005 107.9C98.6405 107.5 98.9605 107.26 99.3605 107.18C99.7605 107.1 100.12 107.28 100.44 107.72C100.8 108.16 101.22 108.74 101.7 109.46C102.34 110.42 103.24 111.14 104.4 111.62C105.56 112.06 106.68 112.3 107.76 112.34C109.04 112.38 110.12 112.14 111 111.62C111.88 111.06 112.38 110.44 112.5 109.76C112.62 109.08 112.48 108.46 112.08 107.9C111.68 107.34 111.16 106.86 110.52 106.46C109.88 106.02 109.18 105.66 108.42 105.38C107.7 105.1 107.08 104.88 106.56 104.72C105.4 104.36 104.3 103.96 103.26 103.52C102.22 103.04 101.32 102.48 100.56 101.84C99.8005 101.2 99.2005 100.46 98.7605 99.62C98.3205 98.74 98.1405 97.7 98.2205 96.5ZM124.575 93.32C124.575 93.08 124.535 92.94 124.455 92.9C124.415 92.82 124.355 92.76 124.275 92.72C123.875 92.6 123.395 92.48 122.835 92.36C122.275 92.2 121.855 92.06 121.575 91.94C121.175 91.74 120.835 91.46 120.555 91.1C120.275 90.7 120.135 90.3 120.135 89.9C120.135 89.62 120.355 89.38 120.795 89.18C121.235 88.94 121.595 88.78 121.875 88.7C122.875 88.38 123.795 88.14 124.635 87.98C125.475 87.82 126.375 87.76 127.335 87.8C127.815 87.8 128.195 87.9 128.475 88.1C128.795 88.3 129.015 88.54 129.135 88.82C129.295 89.06 129.395 89.32 129.435 89.6C129.515 89.84 129.555 90.04 129.555 90.2V108.62C129.555 109.58 129.455 110.64 129.255 111.8C129.055 112.92 128.795 113.98 128.475 114.98C128.195 115.94 127.835 116.74 127.395 117.38C126.995 118.02 126.595 118.34 126.195 118.34C125.835 118.34 125.555 117.96 125.355 117.2C125.155 116.48 124.995 115.6 124.875 114.56C124.755 113.52 124.675 112.46 124.635 111.38C124.595 110.3 124.575 109.4 124.575 108.68V93.32ZM126.495 84.62C126.055 84.7 125.435 84.58 124.635 84.26C123.875 83.9 123.255 83.44 122.775 82.88C122.455 82.52 122.295 82.1 122.295 81.62C122.335 81.1 122.455 80.62 122.655 80.18C122.895 79.7 123.195 79.3 123.555 78.98C123.955 78.66 124.375 78.5 124.815 78.5C125.295 78.5 125.775 78.58 126.255 78.74C126.775 78.86 127.235 79.06 127.635 79.34C128.075 79.58 128.435 79.86 128.715 80.18C128.995 80.5 129.135 80.84 129.135 81.2C129.135 81.88 128.875 82.6 128.355 83.36C127.835 84.12 127.215 84.54 126.495 84.62ZM145.8 116.66C143.72 116.62 141.9 116.16 140.34 115.28C138.82 114.36 137.58 113.2 136.62 111.8C135.66 110.36 135 108.78 134.64 107.06C134.28 105.3 134.22 103.58 134.46 101.9C134.7 100.06 135.2 98.38 135.96 96.86C136.76 95.34 137.76 94.06 138.96 93.02C140.16 91.98 141.56 91.2 143.16 90.68C144.76 90.12 146.5 89.9 148.38 90.02C149.98 90.14 151.32 90.56 152.4 91.28C153.48 92 154.36 92.82 155.04 93.74C155.72 94.66 156.22 95.58 156.54 96.5C156.86 97.42 157.06 98.12 157.14 98.6C157.54 98.92 157.88 99.34 158.16 99.86C158.44 100.38 158.58 100.74 158.58 100.94C158.46 101.54 157.64 102 156.12 102.32C155.52 102.44 154.52 102.58 153.12 102.74C151.72 102.9 150.2 103.06 148.56 103.22C146.96 103.38 145.38 103.5 143.82 103.58C142.3 103.66 141.12 103.68 140.28 103.64C140.2 104.4 140.2 105.26 140.28 106.22C140.36 107.18 140.6 108.1 141 108.98C141.4 109.82 142 110.54 142.8 111.14C143.6 111.74 144.68 112.06 146.04 112.1C146.92 112.18 147.86 112.12 148.86 111.92C149.9 111.72 150.62 111.54 151.02 111.38C152.54 110.86 153.64 110.44 154.32 110.12C155 109.8 155.48 109.8 155.76 110.12C156 110.36 155.96 110.9 155.64 111.74C155.36 112.58 154.62 113.48 153.42 114.44C152.22 115.36 150.92 115.96 149.52 116.24C148.12 116.52 146.88 116.66 145.8 116.66ZM151.92 98.48C151.8 97.88 151.56 97.28 151.2 96.68C150.88 96.04 150.44 95.5 149.88 95.06C149.36 94.58 148.74 94.22 148.02 93.98C147.34 93.74 146.6 93.7 145.8 93.86C145.04 93.98 144.36 94.26 143.76 94.7C143.2 95.14 142.7 95.66 142.26 96.26C141.82 96.86 141.46 97.5 141.18 98.18C140.9 98.86 140.7 99.52 140.58 100.16C142.74 99.84 144.72 99.54 146.52 99.26C148.32 98.98 150.12 98.72 151.92 98.48ZM168.026 94.52C168.266 94.16 168.606 93.82 169.046 93.5C169.526 93.18 170.026 92.9 170.546 92.66C171.106 92.42 171.686 92.24 172.286 92.12C172.886 91.96 173.426 91.88 173.906 91.88C177.146 91.88 179.586 92.94 181.226 95.06C182.906 97.18 183.746 100.42 183.746 104.78C183.746 105.78 183.686 106.8 183.566 107.84C183.486 108.88 183.426 109.94 183.386 111.02C183.386 112.1 183.426 113.16 183.506 114.2C183.626 115.24 183.886 116.26 184.286 117.26C184.406 117.5 184.526 117.76 184.646 118.04C184.806 118.36 184.946 118.66 185.066 118.94C185.186 119.26 185.246 119.54 185.246 119.78C185.246 120.02 185.146 120.22 184.946 120.38C184.786 120.5 184.546 120.54 184.226 120.5C183.906 120.5 183.566 120.44 183.206 120.32C182.846 120.24 182.486 120.14 182.126 120.02C181.806 119.9 181.566 119.78 181.406 119.66C180.686 119.18 180.106 118.5 179.666 117.62C179.266 116.74 178.966 115.76 178.766 114.68C178.566 113.56 178.446 112.42 178.406 111.26C178.366 110.06 178.346 108.92 178.346 107.84C178.346 106.6 178.286 105.4 178.166 104.24C178.046 103.04 177.806 101.98 177.446 101.06C177.086 100.1 176.566 99.32 175.886 98.72C175.246 98.08 174.406 97.7 173.366 97.58C172.606 97.5 171.726 97.56 170.726 97.76C169.766 97.92 168.926 98.42 168.206 99.26C168.206 101.42 168.186 103.6 168.146 105.8C168.106 107.96 168.046 110.18 167.966 112.46C167.926 113.62 167.766 114.7 167.486 115.7C167.206 116.66 166.846 117.5 166.406 118.22C166.006 118.98 165.546 119.56 165.026 119.96C164.546 120.4 164.046 120.62 163.526 120.62C163.206 120.62 163.006 120.22 162.926 119.42C162.846 118.62 162.806 117.68 162.806 116.6C162.846 115.56 162.886 114.5 162.926 113.42C163.006 112.34 163.046 111.5 163.046 110.9C163.046 108.5 163.066 106 163.106 103.4C163.186 100.76 163.126 97.94 162.926 94.94C162.366 94.58 161.846 94.14 161.366 93.62C160.926 93.1 160.626 92.5 160.466 91.82C160.426 91.66 160.406 91.46 160.406 91.22C160.406 90.94 160.426 90.68 160.466 90.44C160.506 90.2 160.566 90 160.646 89.84C160.766 89.64 160.926 89.54 161.126 89.54C161.326 89.54 161.566 89.58 161.846 89.66C162.126 89.74 162.386 89.82 162.626 89.9C162.906 90.02 163.246 90.16 163.646 90.32C164.046 90.48 164.446 90.66 164.846 90.86C165.246 91.02 165.626 91.2 165.986 91.4C166.386 91.6 166.706 91.78 166.946 91.94C167.306 92.22 167.566 92.56 167.726 92.96C167.926 93.32 168.026 93.8 168.026 94.4V94.52Z" fill="white"/>
</svg>
