<svg width="1134" height="4423" viewBox="0 0 1134 4423" fill="none" xmlns="http://www.w3.org/2000/svg">
<path d="M43 10.5C51.3129 85.3161 328.8 189.849 389.542 211.543C471.762 240.907 555.594 258.901 633.512 297.86C693.992 328.1 750.627 374.721 816.132 394.877C923.634 427.954 909.901 451.162 806.858 474.06C732.876 490.5 667.297 520.552 594.277 546.109C517.865 572.854 461.138 637.29 389.542 673.088C364.603 685.557 327.052 705.617 306.793 725.876C257.631 775.038 188.475 850.555 127.026 885.669C90.4919 906.545 43.4934 956.361 14.3146 985.54C-10.8144 1010.67 86.3802 996.102 117.039 1014.07C161.095 1039.9 216.031 1063.37 263.991 1081.13C413.163 1136.38 542.61 1240.2 684.874 1309.41C698.82 1316.19 935.177 1423.02 913.149 1447.8C898.888 1463.84 852.664 1463.49 832.539 1463.49C801.538 1463.49 779.336 1481.43 748.363 1489.17C646.272 1514.69 548.235 1592.59 466.585 1656.1C363.664 1736.15 234.053 1780.54 126.312 1855.13C95.4821 1876.47 67.5071 1907.58 35.7155 1925.75C-5.59917 1949.36 -11.2567 1964.27 37.1422 1964.27C96.9001 1964.27 180.299 2014.19 222.616 2054.15C303.369 2130.42 426.951 2160.75 520.801 2221.08C573.999 2255.28 636.781 2272.26 690.581 2304.54C729.318 2327.79 767.189 2370.38 806.858 2388.01C837.595 2401.67 864.954 2425.24 896.742 2439.37C904.904 2443 977.764 2481.34 947.39 2490.02C893.853 2505.31 818.807 2502.94 774.757 2542.09C693.823 2614.03 583.263 2663.48 492.266 2721.86C374.195 2797.6 258.464 2851.6 132.732 2914.47C126.732 2917.47 38.0778 2968.19 48.5559 2978.67C58.2524 2988.37 130.24 3013.05 148.426 3020.04C235.401 3053.5 329.5 3089.23 415.937 3127.05C528.117 3176.13 648.128 3207.93 755.496 3267.58C801.215 3292.98 1055.02 3378.3 934.55 3421.67C686.309 3511.03 458.674 3658.57 211.202 3754.81C148.426 3792.5 152.958 3783.62 132.732 3818C132.732 3818 84 3857.63 84 3886.5C84 3966.66 457.903 4101.9 520.801 4132.5C556.269 4149.75 556.32 4150.15 593 4164.5C698.5 4214.62 658 4196 685 4206.5C712 4217 724 4226 757 4242.5C805.5 4266.75 1075.52 4399.1 1123.5 4413" stroke="#4A5068" stroke-opacity="0.22" stroke-width="20" stroke-linecap="round" stroke-dasharray="30 50"/>
</svg>
