<svg width="1357" height="3600" viewBox="0 0 1357 3600" fill="none" xmlns="http://www.w3.org/2000/svg">
<path d="M234.505 10.4038C378.864 27.3872 509.206 132.479 628.264 208.035C777.432 302.699 884.968 442.147 985.954 585.262C1073 708.628 1169.29 835.303 1206.88 984.281C1215.51 1018.47 1233.37 1068.86 1227.17 1104.51C1220.91 1140.47 1186.77 1180.8 1164.8 1207.46C1078.54 1312.13 980.646 1427.18 863.468 1498.27C796.498 1538.91 688.523 1590.48 611.732 1549.37C493.325 1485.98 441.413 1373.53 376.529 1264.57C354.462 1227.52 330.25 1180.13 288.609 1161.62C247.316 1143.27 177.532 1210.77 153.348 1234.51C78.8775 1307.63 67.277 1392.57 38.3768 1490.01C7.18948 1595.15 10.3193 1700.8 11.3246 1809.37C12.2168 1905.73 32.5018 2008.54 93.984 2085.15C175.837 2187.16 359.872 2220.44 483.234 2194.87C562.647 2178.4 628.858 2133.27 710.923 2120.47C904.687 2090.25 1139.72 2135.05 1248.96 2318.1C1306.89 2415.17 1332.62 2527.37 1342.14 2639.72C1345.44 2678.62 1351.12 2731.45 1340.64 2769.72C1328.43 2814.29 1282.57 2860.13 1248.96 2889.96C1138.65 2987.84 975.346 2932.04 843.178 2932.04C753.164 2932.04 663.745 2933.85 574.16 2923.77C516.018 2917.23 515.837 2910.74 496.761 2962.09C434.748 3129.05 332.639 3273.74 241.268 3424.24C211.636 3473.04 220.789 3538.19 236.008 3589.55" stroke="#4A5068" stroke-opacity="0.22" stroke-width="20" stroke-linecap="round" stroke-dasharray="20 50"/>
</svg>
