<svg width="1051" height="6144" viewBox="0 0 1051 6144" fill="none" xmlns="http://www.w3.org/2000/svg">
<path d="M10.3418 10.3425C12.4039 26.8397 179.954 70.3896 204.281 81.8777C260.827 108.58 340.198 124.799 402.99 124.799C560.019 124.799 705.584 243.869 840.149 307.611C889.147 330.82 940.298 369.423 940.298 428.426C940.298 513.355 882.608 544.027 832.996 604.084C766.719 684.313 685.777 753.932 610.442 825.843C521.718 910.534 396.631 966.12 396.631 1097.68C396.631 1170.71 431.912 1181.23 482.474 1232.8C521.375 1272.48 543.968 1321.8 582.623 1361.56C625.969 1406.15 669.733 1452.79 711.386 1499.07C836.351 1637.92 1040.45 1824.02 1040.45 2024.45C1040.45 2141.09 849.988 2146.01 767.024 2173.88C642.103 2215.85 518.753 2262.02 395.042 2307.41C330.972 2330.92 194.397 2341.46 166.924 2414.72C130.118 2512.87 81.8769 2583.22 81.8769 2692.91C81.8769 2761.96 155.518 2828.93 199.512 2874.93C319.979 3000.87 462.193 3106.67 575.469 3237.37C620.67 3289.53 643.06 3312.47 602.494 3374.88C542.376 3467.37 454.745 3536.82 384.709 3621.28C352.982 3659.54 330.252 3708.04 293.303 3741.3C191.713 3832.73 210.64 3964.64 210.64 4095C210.64 4169.23 220.123 4163.33 283.765 4195.15C371.871 4239.2 417.202 4335.28 496.781 4377.16C651.546 4458.62 755.661 4589.94 875.917 4710.2C951.807 4786.09 697.27 4859.92 650.979 4887.45C574.133 4933.14 482.778 4990.49 442.732 5075.03C420.322 5122.34 438.434 5222.92 439.553 5272.15C441.105 5340.44 445.938 5420.99 454.654 5490.73C471.314 5624.01 614.922 5752.43 683.567 5861.12C753.503 5971.85 864.32 6043.46 954.605 6133.75" stroke="#4A5068" stroke-opacity="0.22" stroke-width="20" stroke-linecap="round" stroke-dasharray="30 50"/>
</svg>
